<!DOCTYPE svg PUBLIC "-//W3C//DTD SVG 1.1//EN" "http://www.w3.org/Graphics/SVG/1.1/DTD/svg11.dtd">
<!-- Uploaded to: SVG Repo, www.svgrepo.com, Transformed by: SVG Repo Mixer Tools -->
<svg width="160px" height="160px" viewBox="0 0 24 24" id="cloudy" xmlns="http://www.w3.org/2000/svg" class="icon multi-color" fill="#000000">
<g id="SVGRepo_bgCarrier" stroke-width="0"/>
<g id="SVGRepo_tracerCarrier" stroke-linecap="round" stroke-linejoin="round"/>
<g id="SVGRepo_iconCarrier">
<title style="stroke-width: 2;">cloudy</title>
<path id="tertiary-fill" d="M21,11.34a3.77,3.77,0,0,1-.46,1.56,3.62,3.62,0,0,1-.58.81A3,3,0,0,0,18,13a3.17,3.17,0,0,0-.53.05,4,4,0,0,0-6.94,0A3.17,3.17,0,0,0,10,13a3,3,0,0,0-2.82,2H6a3,3,0,0,1-1.92-.7,3,3,0,0,1,4-2.09,5,5,0,0,1,9-2.09A4.08,4.08,0,0,1,18,10,4,4,0,0,1,21,11.34Z" style="fill: #ffff00; stroke-width: 2;"/>
<path id="primary-stroke" d="M19.94,13.71a3.9,3.9,0,0,0,1-2.37A1.94,1.94,0,0,0,21,11a4,4,0,0,0-4-4,4.08,4.08,0,0,0-.93.12,5,5,0,0,0-9,2.09A3,3,0,0,0,3,12a3,3,0,0,0,3,3H7.18" style="fill: none; stroke: #000000; stroke-linecap: round; stroke-linejoin: round; stroke-width: 2;"/>
<path id="secondary-stroke" d="M18,13a3.17,3.17,0,0,0-.53.05,4,4,0,0,0-6.94,0A3.17,3.17,0,0,0,10,13a3,3,0,0,0,0,6h8a3,3,0,0,0,0-6Z" style="fill: none; stroke: #2ca9bc; stroke-linecap: round; stroke-linejoin: round; stroke-width: 2;"/>
</g>
</svg>